# xmcd
#
# Track frame offsets:
# 150
# 13122
# 23860
# 33882
# 44195
# 56995
# 66790
# 80815
# 94532
# 105737
# 116055
# 128735
# 138167
# 152790
# 162972
# 165677
#
# Disc length: 2470 seconds
#
#
# Revision: 4
# Processed by: cddbd v1.5.1PL0 Copyright (c) Steve Scherf et al.
# Submitted via: FreeRIP 2.80 
#
DISCID=da09a410
DTITLE=Deke Dickerson and The Ecco-Fonics - More Million Sellers
DYEAR=1900
DGENRE=Western Swing
TTITLE0=Let The Good Times Roll
TTITLE1=The Hatchet Man
TTITLE2=I'm A Wreck
TTITLE3=Rockin' Gypsy
TTITLE4=Nightmare Of A Woman
TTITLE5=Broken Down and Broken Hearted
TTITLE6=I Gave My Heart Before
TTITLE7=My Name Is Deke
TTITLE8=You're My Cadillac
TTITLE9=Mean Son Of A Gun
TTITLE10=So Long I'm Gone
TTITLE11=Tropical Island Boogie Serenade
TTITLE12=I Think You Gotta Pay For That
TTITLE13=Red Headed Woman
TTITLE14=Closing Theme From Jerry Scoggins
TTITLE15=Radio Spots For Disk Jockeys
EXTD=
EXTT0=
EXTT1=
EXTT2=
EXTT3=
EXTT4=
EXTT5=
EXTT6=
EXTT7=
EXTT8=
EXTT9=
EXTT10=
EXTT11=
EXTT12=
EXTT13=
EXTT14=
EXTT15=
PLAYORDER=
